<svg width="25" height="28" viewBox="0 0 25 28" fill="none" xmlns="http://www.w3.org/2000/svg">
<path id="Vector" d="M3.10231 27.1452C2.24918 27.1452 1.5191 26.8417 0.912079 26.2347C0.304026 25.6266 0 24.8961 0 24.0429V10.0825C0 9.59131 0.110132 9.12597 0.330396 8.68647C0.549626 8.24698 0.853136 7.88504 1.24092 7.60066L10.5479 0.620462C10.8322 0.413642 11.1295 0.258526 11.4398 0.155115C11.75 0.051705 12.0732 0 12.4092 0C12.7453 0 13.0685 0.051705 13.3787 0.155115C13.6889 0.258526 13.9863 0.413642 14.2706 0.620462L23.5776 7.60066C23.9654 7.88504 24.2694 8.24698 24.4896 8.68647C24.7089 9.12597 24.8185 9.59131 24.8185 10.0825V24.0429C24.8185 24.8961 24.515 25.6266 23.908 26.2347C23.2999 26.8417 22.5693 27.1452 21.7162 27.1452H15.5116V16.2871H9.30693V27.1452H3.10231Z" fill="#303841" fill-opacity="0.3"/>
</svg>
